<?xml version="1.0" encoding="UTF-8"?>
<svg width="18px" height="22px" viewBox="0 0 18 22" version="1.1" xmlns="http://www.w3.org/2000/svg" xmlns:xlink="http://www.w3.org/1999/xlink">
    <title>android</title>
    <g id="Page-1" stroke="none" stroke-width="1" fill="none" fill-rule="evenodd">
        <g id="android" fill="#AAC148" fill-rule="nonzero">
            <path d="M14.2952887,6.54545455 L3.70471135,6.54545455 C3.46781685,6.54545455 3.27272727,6.75061058 3.27272727,6.99972863 L3.27272727,16.3489824 C3.27272727,16.5981004 3.46781685,16.8032564 3.70471135,16.8032564 L5.59986729,16.8032564 L5.59986729,19.953867 C5.59986729,20.6865672 6.15726609,21.2727273 6.8540146,21.2727273 L6.8540146,21.2727273 C7.55076311,21.2727273 8.10816191,20.6865672 8.10816191,19.953867 L8.10816191,16.8032564 L9.86396815,16.8032564 L9.86396815,19.953867 C9.86396815,20.6865672 10.421367,21.2727273 11.1181155,21.2727273 L11.1181155,21.2727273 C11.814864,21.2727273 12.3722628,20.6865672 12.3722628,19.953867 L12.3722628,16.8032564 L14.2952887,16.8032564 C14.5321831,16.8032564 14.7272727,16.5981004 14.7272727,16.3489824 L14.7272727,6.99972863 C14.7272727,6.75061058 14.5321831,6.54545455 14.2952887,6.54545455 Z" id="Path"></path>
            <path d="M1.63636364,6.54545455 L1.63636364,6.54545455 C0.727272727,6.54545455 0,7.14375935 0,7.89164035 L0,13.3810869 C0,14.1289679 0.727272727,14.7272727 1.63636364,14.7272727 L1.63636364,14.7272727 C2.54545455,14.7272727 3.27272727,14.1289679 3.27272727,13.3810869 L3.27272727,7.89164035 C3.27272727,7.15871697 2.54545455,6.54545455 1.63636364,6.54545455 Z" id="Path"></path>
            <path d="M16.3636364,6.54545455 L16.3636364,6.54545455 C15.4545455,6.54545455 14.7272727,7.14375935 14.7272727,7.89164035 L14.7272727,13.3810869 C14.7272727,14.1289679 15.4545455,14.7272727 16.3636364,14.7272727 L16.3636364,14.7272727 C17.2727273,14.7272727 18,14.1289679 18,13.3810869 L18,7.89164035 C18,7.15871697 17.2727273,6.54545455 16.3636364,6.54545455 Z" id="Path"></path>
            <path d="M3.70753818,6.54545455 L14.2929415,6.54545455 C14.562182,6.54545455 14.7747403,6.28389469 14.7180581,6.00780374 C14.3637943,4.29313361 13.3010028,2.85455442 11.8697769,2.02628156 L12.7766923,0.355204736 C12.8333745,0.238955913 12.8050334,0.093644885 12.691669,0.0355204736 C12.5783046,-0.0226039377 12.436599,0.00645826793 12.3799168,0.122707091 L11.4730014,1.80831502 C10.7077915,1.45956855 9.87172887,1.25613311 8.99315457,1.25613311 C8.11458026,1.25613311 7.27851762,1.45956855 6.54164884,1.80831502 L5.62056288,0.122707091 C5.56388066,0.00645826793 5.42217513,-0.0371350406 5.3088107,0.0355204736 C5.19544628,0.093644885 5.15293462,0.238955913 5.22378738,0.355204736 L6.1307028,2.02628156 C4.68530636,2.85455442 3.62251486,4.30766471 3.28242158,6.00780374 C3.22573937,6.2984258 3.42412711,6.54545455 3.70753818,6.54545455 Z M12.153188,4.06063596 C12.153188,4.33672691 11.9264591,4.56922456 11.6572186,4.56922456 C11.3879781,4.56922456 11.1612492,4.33672691 11.1612492,4.06063596 C11.1612492,3.78454501 11.3879781,3.55204736 11.6572186,3.55204736 C11.9264591,3.55204736 12.153188,3.78454501 12.153188,4.06063596 Z M6.32909054,3.55204736 C6.59833106,3.55204736 6.82505991,3.78454501 6.82505991,4.06063596 C6.82505991,4.33672691 6.59833106,4.56922456 6.32909054,4.56922456 C6.05985003,4.56922456 5.83312118,4.33672691 5.83312118,4.06063596 C5.83312118,3.78454501 6.05985003,3.55204736 6.32909054,3.55204736 Z" id="Shape"></path>
        </g>
    </g>
</svg>