<?xml version="1.0" encoding="UTF-8"?>
<svg width="18px" height="21px" viewBox="0 0 18 21" version="1.1" xmlns="http://www.w3.org/2000/svg" xmlns:xlink="http://www.w3.org/1999/xlink">
    <title>apple</title>
    <g id="Page-1" stroke="none" stroke-width="1" fill="none" fill-rule="evenodd">
        <g id="apple">
            <path d="M15.021397,11.1435199 C14.9919059,8.48363448 17.3069587,7.20968937 17.4101776,7.15369178 C16.1125684,5.34776959 14.0924267,5.10977984 13.3698943,5.08178105 C11.6446639,4.91378829 10.0079068,6.04773943 9.13791875,6.04773943 C8.26793074,6.04773943 6.92608482,5.10977984 5.49576555,5.13777864 C3.6230795,5.16577743 1.89784904,6.173734 0.924642109,7.76966524 C-1.02177174,10.9755271 0.423293086,15.735322 2.32547026,18.3392098 C3.25444051,19.613155 4.36035747,21.0410934 5.82016786,20.9990952 C7.22099601,20.9430977 7.75183615,20.145132 9.4475755,20.145132 C11.1433148,20.145132 11.6151727,20.9990952 13.0897287,20.9850959 C14.5937758,20.9570971 15.5522371,19.6831519 16.4664618,18.4092068 C17.5281421,16.9252708 17.9705089,15.4973323 18,15.4273353 C17.9557633,15.3713377 15.0508881,14.321383 15.021397,11.1435199 L15.021397,11.1435199 Z M12.2492318,3.34585584 C13.0160009,2.46389384 13.546841,1.23194692 13.3993854,0 C12.2934685,0.0419981905 10.936877,0.699969842 10.1406168,1.58193184 C9.43282994,2.36589806 8.79877088,3.62584378 8.96097203,4.82979191 C10.2143446,4.92778768 11.4677171,4.24181724 12.2492318,3.34585584 L12.2492318,3.34585584 Z" id="Shape" fill="#000000" fill-rule="nonzero"></path>
            <rect id="Rectangle" x="0" y="0" width="18" height="21"></rect>
        </g>
    </g>
</svg>