<?xml version="1.0" encoding="UTF-8"?>
<svg width="56px" height="56px" viewBox="0 0 56 56" version="1.1" xmlns="http://www.w3.org/2000/svg" xmlns:xlink="http://www.w3.org/1999/xlink">
    <!-- Generator: Sketch 48.2 (47327) - http://www.bohemiancoding.com/sketch -->
    <title>ASR</title>
    <desc>Created with Sketch.</desc>
    <defs></defs>
    <g id="Page-1" stroke="none" stroke-width="1" fill="none" fill-rule="evenodd">
        <g id="ASR">
            <path d="M55.3244,54.5552 C55.3244,55.1612 54.8284,55.6592 54.2214,55.6592 L1.6934,55.6592 C1.0874,55.6592 0.5914,55.1612 0.5914,54.5552 L0.5914,2.0282 C0.5914,1.4212 1.0874,0.9242 1.6934,0.9242 L54.2214,0.9242 C54.8284,0.9242 55.3244,1.4212 55.3244,2.0282 L55.3244,54.5552 Z" id="Fill-4" fill="#34332B"></path>
            <polygon id="Stroke-6" stroke="#3F3E38" stroke-width="1.47" points="10.319 45.931 45.597 45.931 45.597 10.652 10.319 10.652"></polygon>
            <polygon id="Fill-8" fill="#BEAA30" points="3.379 7.734 8.049 7.734 8.049 3.065 3.379 3.065"></polygon>
            <polygon id="Fill-9" fill="#BEAA30" points="21.537 7.734 26.207 7.734 26.207 3.065 21.537 3.065"></polygon>
            <polygon id="Fill-10" fill="#BEAA30" points="12.328 7.734 16.998 7.734 16.998 3.065 12.328 3.065"></polygon>
            <polygon id="Fill-11" fill="#BEAA30" points="30.358 7.734 35.027 7.734 35.027 3.065 30.358 3.065"></polygon>
            <polygon id="Fill-12" fill="#BEAA30" points="39.047 7.734 43.716 7.734 43.716 3.065 39.047 3.065"></polygon>
            <polygon id="Fill-13" fill="#BEAA30" points="48.256 7.734 52.925 7.734 52.925 3.065 48.256 3.065"></polygon>
            <polygon id="Fill-14" fill="#BEAA30" points="3.379 53.129 8.049 53.129 8.049 48.459 3.379 48.459"></polygon>
            <polygon id="Fill-15" fill="#BEAA30" points="21.667 53.129 26.336 53.129 26.336 48.459 21.667 48.459"></polygon>
            <polygon id="Fill-16" fill="#BEAA30" points="12.458 53.129 17.127 53.129 17.127 48.459 12.458 48.459"></polygon>
            <polygon id="Fill-17" fill="#BEAA30" points="30.486 53.129 35.156 53.129 35.156 48.459 30.486 48.459"></polygon>
            <polygon id="Fill-18" fill="#BEAA30" points="39.177 53.129 43.846 53.129 43.846 48.459 39.177 48.459"></polygon>
            <polygon id="Fill-19" fill="#BEAA30" points="48.385 53.129 53.055 53.129 53.055 48.459 48.385 48.459"></polygon>
            <polygon id="Fill-20" fill="#BEAA30" points="3.379 26.152 8.049 26.152 8.049 21.482 3.379 21.482"></polygon>
            <polygon id="Fill-21" fill="#BEAA30" points="3.379 16.943 8.049 16.943 8.049 12.273 3.379 12.273"></polygon>
            <polygon id="Fill-22" fill="#BEAA30" points="3.379 34.971 8.049 34.971 8.049 30.302 3.379 30.302"></polygon>
            <polygon id="Fill-23" fill="#BEAA30" points="3.379 43.661 8.049 43.661 8.049 38.992 3.379 38.992"></polygon>
            <polygon id="Fill-24" fill="#BEAA30" points="48.385 26.281 53.055 26.281 53.055 21.612 48.385 21.612"></polygon>
            <polygon id="Fill-25" fill="#BEAA30" points="48.385 17.073 53.055 17.073 53.055 12.403 48.385 12.403"></polygon>
            <polygon id="Fill-26" fill="#BEAA30" points="48.385 35.101 53.055 35.101 53.055 30.431 48.385 30.431"></polygon>
            <polygon id="Fill-27" fill="#BEAA30" points="48.385 43.791 53.055 43.791 53.055 39.122 48.385 39.122"></polygon>
            <polygon id="Fill-28" fill="#BEAA30" points="16.544 39.9 27.439 39.9 27.439 29.004 16.544 29.004"></polygon>
            <polygon id="Fill-29" fill="#BEAA30" points="28.995 39.9 39.89 39.9 39.89 29.004 28.995 29.004"></polygon>
            <polygon id="Fill-30" fill="#BEAA30" points="28.995 27.319 39.89 27.319 39.89 16.423 28.995 16.423"></polygon>
            <polygon id="Fill-31" fill="#BEAA30" points="20.8586 16.4243 16.5446 20.1883 16.5446 27.3193 27.4386 27.3193 27.4386 16.4243"></polygon>
        </g>
    </g>
</svg>