<?xml version="1.0" encoding="UTF-8"?>
<svg width="16px" height="16px" viewBox="0 0 16 16" version="1.1" xmlns="http://www.w3.org/2000/svg" xmlns:xlink="http://www.w3.org/1999/xlink">
    <title>macos</title>
    <g id="Page-1" stroke="none" stroke-width="1" fill="none" fill-rule="evenodd">
        <g id="macos" fill-rule="nonzero">
            <path d="M0.4,1 L0.4,14.8 C0.4,15 0.6,15.2 0.8,15.2 L9.1,15.2 L9.1,13.8 C9.1,13.8 9.1,13.2 9.1,12.4 L9,8 L6.2,8.1 C6.1,8.1 5.9,8.1 5.8,8 C5.6,7.8 5.7,7.6 5.8,7.4 L9.1,0.7 L0.7,0.7 C0.6,0.7 0.4,0.9 0.4,1 Z" id="Path" fill="#039EFA"></path>
            <path d="M3.6,3.4 C3.6,4.2 3.6,5.1 3.6,5.9 C3.6,6.3 4.3,6.3 4.3,5.9 C4.3,5.1 4.3,4.2 4.3,3.4 C4.3,2.9 3.6,2.9 3.6,3.4 L3.6,3.4 Z" id="Path" fill="#231F20"></path>
            <path d="M12,3.4 C12,4.2 12,5.1 12,5.9 C12,6.3 12.7,6.3 12.7,5.9 C12.7,5.1 12.7,4.2 12.7,3.4 C12.7,2.9 12,2.9 12,3.4 L12,3.4 Z" id="Path" fill="#231F20"></path>
            <path d="M15.2,0 L0.8,0 C0.4,0 0,0.4 0,0.8 L0,15.1 C0,15.6 0.4,16 0.8,16 L15.1,16 C15.6,16 15.9,15.6 15.9,15.2 L15.9,0.8 C16,0.4 15.6,0 15.2,0 Z M0.8,15.2 L0.8,0.9 L8.7,0.9 C7.6,3.2 6.4,5.5 5.3,7.8 C5.1,8 5.3,8.3 5.6,8.3 C6.7,8.3 7.7,8.3 8.8,8.2 C8.8,9.5 8.8,10.9 8.8,12.2 C7.1,12.3 5.5,12 4.1,11 C3.7,10.7 3.4,11.3 3.7,11.6 C5.2,12.6 6.9,13 8.7,12.9 C8.7,13.6 8.7,14.4 8.7,15.1 L0.8,15.2 Z M15.2,15.2 C15.2,15.2 15.2,15.2 15.2,15.2 L9.5,15.2 C9.5,14.4 9.5,13.7 9.5,12.9 C10.8,12.7 12.1,12.3 13.2,11.7 C13.6,11.5 13.2,10.9 12.8,11.1 C11.8,11.7 10.6,12.1 9.5,12.2 C9.5,10.8 9.5,9.4 9.5,7.9 C9.5,7.7 9.3,7.5 9.2,7.6 C8.2,7.6 7.2,7.6 6.2,7.7 C7.3,5.5 8.5,3.2 9.6,1 C9.6,1 9.6,1 9.6,1 L15.2,1 L15.2,15.2 Z" id="Shape" fill="#231F20"></path>
        </g>
    </g>
</svg>