<?xml version="1.0" encoding="UTF-8"?>
<svg width="16px" height="16px" viewBox="0 0 16 16" version="1.1" xmlns="http://www.w3.org/2000/svg" xmlns:xlink="http://www.w3.org/1999/xlink">
    <title>windows</title>
    <g id="Page-1" stroke="none" stroke-width="1" fill="none" fill-rule="evenodd">
        <g id="windows" transform="translate(0.000000, 0.900000)" fill-rule="nonzero">
            <path d="M6.4,7.1 C5.7,6.7 5,6.5 4.3,6.5 C4.2,6.5 4.1,6.5 4,6.5 C3.1,6.6 2.3,6.8 1.8,7 C1.7,7.1 1.5,7.1 1.4,7.2 L0,12 C1,11.6 1.8,11.5 2.6,11.5 C3.9,11.5 4.8,12 5.5,12.5 C5.9,11.3 6.7,8.4 7,7.5 C6.8,7.3 6.6,7.2 6.4,7.1 Z" id="Path" fill="#00A6D2"></path>
            <path d="M4.6,4.9 C5.8,4.9 6.7,5.4 7.4,5.8 L8.8,0.9 C8.6,0.7 7.8,0.3 7.2,0.1 C6.8,-4.4408921e-16 6.4,-4.4408921e-16 6,-4.4408921e-16 C5.2,-4.4408921e-16 4.3,0.2 3.3,0.6 L1.9,5.4 C2.9,5.1 3.8,4.9 4.6,4.9 L4.6,4.9 Z" id="Path" fill="#F05523"></path>
            <path d="M16,2.2 C15.1,2.6 14.2,2.7 13.3,2.7 C11.9,2.7 10.8,2.2 10.1,1.7 L8.7,6.7 C9.7,7.3 10.7,7.6 11.8,7.6 C12.7,7.6 13.6,7.4 14.5,7 L14.5,7 L14.6,7 L16,2.2 Z" id="Path" fill="#80B441"></path>
            <path d="M8.3,8.3 L6.9,13.2 C7.3,13.4 8.7,14.2 9.8,14.2 C10.7,14.2 11.6,14 12.8,13.5 L14.1,8.8 C13.2,9.1 12.3,9.2 11.5,9.2 C10,9.3 8.9,8.8 8.3,8.3 Z" id="Path" fill="#FCB813"></path>
        </g>
    </g>
</svg>